<?xml version="1.0" encoding="UTF-8" standalone="no"?>
<svg
   xmlns:dc="http://purl.org/dc/elements/1.1/"
   xmlns:cc="http://creativecommons.org/ns#"
   xmlns:rdf="http://www.w3.org/1999/02/22-rdf-syntax-ns#"
   xmlns:svg="http://www.w3.org/2000/svg"
   xmlns="http://www.w3.org/2000/svg"
   id="svg8"
   version="1.1"
   viewBox="0 0 77.535242 29.104167"
   height="110"
   width="293.04654">
  <defs
     id="defs2" />
  <metadata
     id="metadata5">
    <rdf:RDF>
      <cc:Work
         rdf:about="">
        <dc:format>image/svg+xml</dc:format>
        <dc:type
           rdf:resource="http://purl.org/dc/dcmitype/StillImage" />
        <dc:title></dc:title>
      </cc:Work>
    </rdf:RDF>
  </metadata>
  <g
     transform="translate(4.9638004,1.1055788)"
     id="layer2">
    <rect
       ry="6.7657094"
       y="-1.1055788"
       x="-4.9638004"
       height="29.104166"
       width="77.535233"
       id="rect4647"
       style="fill:#322931;fill-opacity:1;stroke-width:0.46217835" />
  </g>
  <g
     transform="translate(4.9638004,-269.43601)"
     id="layer1">
    <g
       id="flowRoot10"
       style="font-style:normal;font-weight:normal;font-size:40px;line-height:25px;font-family:sans-serif;letter-spacing:0px;word-spacing:0px;fill:#ffffff;fill-opacity:0.94117647;stroke:none"
       transform="matrix(0.10303608,0,0,0.10303608,-6.2835754,268.62714)"
       aria-label="ggez">
      <path
         id="path4632"
         style="font-style:normal;font-variant:normal;font-weight:900;font-stretch:normal;font-size:192px;font-family:Roboto;-inkscape-font-specification:'Roboto Heavy';fill:#ffffff;fill-opacity:0.94117647;fill-rule:nonzero"
         d="m 64.441406,132.60352 q 0,-15.375 5.0625,-27.1875 5.0625,-11.812505 14.53125,-18.187505 9.46875,-6.46875 22.031254,-6.46875 15.84375,0 24.75,10.6875 l 1.125,-8.8125 h 28.6875 v 97.593755 q 0,13.40625 -6.28125,23.25 -6.1875,9.9375 -18,15.1875 -11.8125,5.34375 -27.375,5.34375 -11.156254,0 -21.656254,-4.21875 -10.40625,-4.21875 -15.9375,-10.96875 l 13.21875,-18.5625 q 8.8125,10.40625 23.250004,10.40625 21,0 21,-21.5625 v -3.1875 q -9.09375,10.03125 -22.96875,10.03125 -18.562504,0 -30.000004,-14.15625 -11.4375,-14.25 -11.4375,-38.0625 z m 31.6875,1.96875 q 0,12.46875 4.687504,19.78125 4.6875,7.21875 13.125,7.21875 10.21875,0 14.90625,-6.84375 v -42.65625 q -4.59375,-6.9375 -14.71875,-6.9375 -8.4375,0 -13.21875,7.59375 -4.781254,7.5 -4.781254,21.84375 z" />
      <path
         id="path4634"
         style="font-style:normal;font-variant:normal;font-weight:900;font-stretch:normal;font-size:192px;font-family:Roboto;-inkscape-font-specification:'Roboto Heavy';fill:#ffffff;fill-opacity:0.94117647;fill-rule:nonzero"
         d="m 175.06641,132.60352 q 0,-15.375 5.0625,-27.1875 5.0625,-11.812505 14.53125,-18.187505 9.46875,-6.46875 22.03125,-6.46875 15.84375,0 24.75,10.6875 l 1.125,-8.8125 h 28.6875 v 97.593755 q 0,13.40625 -6.28125,23.25 -6.1875,9.9375 -18,15.1875 -11.8125,5.34375 -27.375,5.34375 -11.15625,0 -21.65625,-4.21875 -10.40625,-4.21875 -15.9375,-10.96875 l 13.21875,-18.5625 q 8.8125,10.40625 23.25,10.40625 21,0 21,-21.5625 v -3.1875 q -9.09375,10.03125 -22.96875,10.03125 -18.5625,0 -30,-14.15625 -11.4375,-14.25 -11.4375,-38.0625 z m 31.6875,1.96875 q 0,12.46875 4.6875,19.78125 4.6875,7.21875 13.125,7.21875 10.21875,0 14.90625,-6.84375 v -42.65625 q -4.59375,-6.9375 -14.71875,-6.9375 -8.4375,0 -13.21875,7.59375 -4.78125,7.5 -4.78125,21.84375 z" />
      <path
         id="path4636"
         style="font-style:normal;font-variant:normal;font-weight:900;font-stretch:normal;font-size:192px;font-family:Roboto;-inkscape-font-specification:'Roboto Heavy';fill:#ffffff;fill-opacity:0.94117647;fill-rule:nonzero"
         d="m 338.47266,185.94727 q -23.34375,0 -37.78125,-13.875 -14.4375,-13.96875 -14.4375,-36.28125 v -2.625 q 0,-15.5625 5.71875,-27.46875 5.8125,-11.906255 16.875,-18.375005 11.0625,-6.5625 26.25,-6.5625 21.375,0 33.75,13.3125 12.375,13.218755 12.375,36.937505 v 12.28125 h -62.8125 q 1.6875,8.53125 7.40625,13.40625 5.71875,4.875 14.8125,4.875 15,0 23.4375,-10.5 l 14.4375,17.0625 q -5.90625,8.15625 -16.78125,13.03125 -10.78125,4.78125 -23.25,4.78125 z m -3.5625,-80.8125 q -13.875,0 -16.5,18.375 h 31.875 v -2.4375 q 0.1875,-7.59375 -3.84375,-11.71875 -4.03125,-4.21875 -11.53125,-4.21875 z" />
      <path
         id="path4638"
         style="font-style:normal;font-variant:normal;font-weight:900;font-stretch:normal;font-size:192px;font-family:Roboto;-inkscape-font-specification:'Roboto Heavy';fill:#ffffff;fill-opacity:0.94117647;fill-rule:nonzero"
         d="m 431.28516,159.69727 h 46.21875 v 24.375 h -86.15625 v -17.625 l 45,-59.4375 H 393.31641 V 82.634765 h 83.15625 v 17.0625 z" />
    </g>
    <flowRoot
       style="font-style:normal;font-weight:normal;font-size:40px;line-height:25px;font-family:sans-serif;letter-spacing:0px;word-spacing:0px;fill:#000000;fill-opacity:1;stroke:none"
       id="flowRoot38"
       xml:space="preserve"><flowRegion
         id="flowRegion40"><rect
           y="51.42857"
           x="261.42856"
           height="40"
           width="2.1428571"
           id="rect42" /></flowRegion><flowPara
         id="flowPara44" /></flowRoot>    <g
       transform="matrix(-0.20974254,0.24833364,-0.24833364,-0.20974254,134.95744,329.29254)"
       id="g4594">
      <path
         style="fill:#ffffff;fill-opacity:1;stroke:none;stroke-width:0.26458332px;stroke-linecap:butt;stroke-linejoin:miter;stroke-opacity:1"
         d="m 33.639881,297 c -0.377976,-4.20499 1.196811,-40.90625 3.401785,-43.27827 0.968852,-0.70158 19.153631,-0.50113 19.654761,0 1.670435,1.9377 5.291668,39.21503 4.724704,43.27827 -4.009043,2.37202 -25.910363,1.63703 -27.78125,0 z"
         id="path46" />
      <g
         id="text50"
         style="font-style:normal;font-weight:normal;font-size:10.58333302px;line-height:6.61458302px;font-family:sans-serif;letter-spacing:0px;word-spacing:0px;fill:#322931;fill-opacity:1;stroke:none;stroke-width:0.26458332"
         aria-label="S">
        <path
           id="path4623"
           style="font-style:normal;font-variant:normal;font-weight:900;font-stretch:normal;font-size:22.57777786px;font-family:Roboto;-inkscape-font-specification:'Roboto Heavy';fill:#322931;fill-opacity:1;stroke-width:0.26458332"
           d="m 50.029872,280.35487 q 0,-0.84887 -0.606337,-1.32292 -0.595312,-0.47404 -2.105642,-0.98116 -1.51033,-0.50712 -2.469445,-0.98116 -3.119878,-1.53238 -3.119878,-4.21129 0,-1.33394 0.771701,-2.34817 0.782726,-1.02526 2.204861,-1.5875 1.422136,-0.57327 3.197049,-0.57327 1.730816,0 3.09783,0.61736 1.378038,0.61736 2.138715,1.76389 0.760677,1.13551 0.760677,2.60174 h -3.858507 q 0,-0.98117 -0.606337,-1.52136 -0.595312,-0.54019 -1.620573,-0.54019 -1.036284,0 -1.642621,0.46302 -0.595313,0.452 -0.595313,1.15756 0,0.61736 0.661459,1.12447 0.661458,0.4961 2.326128,1.03629 1.66467,0.52917 2.734028,1.14653 2.601736,1.4993 2.601736,4.13411 0,2.10564 -1.5875,3.30729 -1.5875,1.20165 -4.354601,1.20165 -1.951302,0 -3.538802,-0.69453 -1.576475,-0.70555 -2.38125,-1.91823 -0.79375,-1.2237 -0.79375,-2.8112 h 3.880556 q 0,1.28985 0.661458,1.90721 0.672483,0.60634 2.171788,0.60634 0.959115,0 1.51033,-0.4079 0.56224,-0.41893 0.56224,-1.16858 z" />
      </g>
      <path
         style="fill:#ffffff;fill-opacity:1;stroke:none;stroke-width:0.26458332px;stroke-linecap:butt;stroke-linejoin:miter;stroke-opacity:1"
         d="m 37.280768,251.56507 c 2.755353,-0.48581 16.061123,-0.65453 18.919568,0.007 -1.427772,-3.55131 -5.808811,-6.41101 -9.744701,-6.3311 -3.699161,0.0751 -7.784561,2.81715 -9.174867,6.3241 z"
         id="path52" />
      <path
         id="path4543"
         d="m 42.583118,243.33908 a 1.0512463,1.0512463 0 0 1 -1.051246,1.05125 1.0512463,1.0512463 0 0 1 -1.051246,-1.05125 1.0512463,1.0512463 0 0 1 1.051246,-1.05125 1.0512463,1.0512463 0 0 1 1.051246,1.05125 z"
         style="fill:#ffffff;fill-opacity:1;stroke-width:0.26458332" />
      <path
         id="path4543-2"
         d="m 48.357956,235.06029 a 1.0512463,1.0512463 0 0 1 -1.051247,1.05124 1.0512463,1.0512463 0 0 1 -1.051246,-1.05124 1.0512463,1.0512463 0 0 1 1.051246,-1.05125 1.0512463,1.0512463 0 0 1 1.051247,1.05125 z"
         style="fill:#ffffff;fill-opacity:1;stroke-width:0.26458332" />
      <path
         id="path4543-7"
         d="m 53.636528,243.81337 a 1.0512463,1.0512463 0 0 1 -1.051247,1.05125 1.0512463,1.0512463 0 0 1 -1.051246,-1.05125 1.0512463,1.0512463 0 0 1 1.051246,-1.05125 1.0512463,1.0512463 0 0 1 1.051247,1.05125 z"
         style="fill:#ffffff;fill-opacity:1;stroke-width:0.26458332" />
      <path
         id="path4543-27"
         d="m 47.890228,241.14067 a 1.0512463,1.0512463 0 0 1 -1.051246,1.05125 1.0512463,1.0512463 0 0 1 -1.051247,-1.05125 1.0512463,1.0512463 0 0 1 1.051247,-1.05125 1.0512463,1.0512463 0 0 1 1.051246,1.05125 z"
         style="fill:#ffffff;fill-opacity:1;stroke-width:0.26458332" />
      <path
         id="path4543-79"
         d="m 51.899273,238.73524 a 1.0512463,1.0512463 0 0 1 -1.051247,1.05125 1.0512463,1.0512463 0 0 1 -1.051246,-1.05125 1.0512463,1.0512463 0 0 1 1.051246,-1.05124 1.0512463,1.0512463 0 0 1 1.051247,1.05124 z"
         style="fill:#ffffff;fill-opacity:1;stroke-width:0.26458332" />
      <path
         id="path4543-9"
         d="m 43.07938,238.40115 a 1.0512463,1.0512463 0 0 1 -1.051247,1.05125 1.0512463,1.0512463 0 0 1 -1.051246,-1.05125 1.0512463,1.0512463 0 0 1 1.051246,-1.05124 1.0512463,1.0512463 0 0 1 1.051247,1.05124 z"
         style="fill:#ffffff;fill-opacity:1;stroke-width:0.26458332" />
    </g>
  </g>
</svg>
